<?xml version="1.0" encoding="UTF-8"?>
<svg version="1.1" xmlns="http://www.w3.org/2000/svg" width="263" height="575">
<path d="M0 0 C86.79 0 173.58 0 263 0 C263 189.75 263 379.5 263 575 C176.21 575 89.42 575 0 575 C0 504.48734177 0 504.48734177 14.625 488.875 C33.54593568 471.20592207 59.50076974 461.77073258 83 452 C115.68747902 438.34189467 146.90402617 424.60477533 173 400 C173.73605469 399.32839844 174.47210938 398.65679687 175.23046875 397.96484375 C196.91801058 377.42885281 207.5100236 349.72228412 213 321 C213.20133545 319.96431885 213.20133545 319.96431885 213.40673828 318.90771484 C220.92312883 277.85828518 213.94335209 229.93422799 190.625 195.0625 C162.67022416 157.06762861 121.91367273 138.11864102 79.3684082 120.56298828 C33.30207477 101.53545154 33.30207477 101.53545154 18 88 C17.23042969 87.35933594 16.46085937 86.71867187 15.66796875 86.05859375 C7.87573904 79.06284408 2.53512321 69.14049284 0 59 C0 39.53 0 20.06 0 0 Z " fill="#000000" transform="translate(0,0)"/>
</svg>
