<?xml version="1.0" encoding="UTF-8"?>
<svg version="1.1" xmlns="http://www.w3.org/2000/svg" width="263" height="134">
<path d="M0 0 C1.04240341 0.00373123 1.04240341 0.00373123 2.10586548 0.00753784 C40.37846785 0.21829307 71.70507815 13.09454814 99.02734375 39.984375 C124.40145035 65.91144983 132.3125 99.01974201 132.3125 134.3125 C45.5225 134.3125 -41.2675 134.3125 -130.6875 134.3125 C-130.6875 99.32563162 -124.27365959 71.12237881 -101.6875 44.3125 C-100.94628906 43.41917969 -100.20507812 42.52585938 -99.44140625 41.60546875 C-83.77905947 23.43044602 -62.41466957 10.99627387 -39.5 4.4375 C-38.83701904 4.24631592 -38.17403809 4.05513184 -37.4909668 3.8581543 C-25.2115187 0.61105021 -12.64095213 -0.07301399 0 0 Z " fill="#000000" transform="translate(130.6875,-0.3125)"/>
</svg>
