<?xml version="1.0" encoding="UTF-8"?>
<svg version="1.1" xmlns="http://www.w3.org/2000/svg" width="263" height="142">
<path d="M0 0 C86.79 0 173.58 0 263 0 C263 37.63724303 258.62997695 68.94258007 234 98 C233.57493164 98.50869629 233.14986328 99.01739258 232.71191406 99.54150391 C219.34645357 115.40607421 202.02459198 127.52357567 182.625 134.875 C181.9441333 135.13700195 181.2632666 135.39900391 180.56176758 135.66894531 C165.4928036 141.00654811 150.33672911 142.66206274 134.43920898 142.52148438 C131.56733586 142.50003612 128.69797018 142.52142404 125.82617188 142.546875 C91.42591014 142.59904866 61.98263644 130.59923312 37 107 C36.24976563 106.31421875 35.49953125 105.6284375 34.7265625 104.921875 C21.29409896 92.19638323 11.5723854 75.3694917 5.625 57.9375 C5.39844727 57.27911133 5.17189453 56.62072266 4.93847656 55.94238281 C-1.11275608 36.93332268 0 20.32141338 0 0 Z " fill="#000000" transform="translate(0,0)"/>
</svg>
