<?xml version="1.0" encoding="UTF-8"?>
<svg id="Layer_1" data-name="Layer 1" xmlns="http://www.w3.org/2000/svg" viewBox="0 0 47.13 43.04">
  <defs>
    <style>
      .cls-1 {
        fill: #e52127;
      }
    </style>
  </defs>
  <path d="m35.18,19.61c-.7,0-1.33.51-1.47.62l-8.51,6.87-3.38-4.19,13.78-11.13,2.61-2.11,8.22,10.18c.58.71.8,1.54.67,2.5-.13.95-.52,1.69-1.17,2.22l-22.28,17.99c-.26.21-.6.35-1.04.42s-.89.08-1.35.03-.9-.15-1.31-.32-.72-.37-.93-.63L4.74,25.11c-.21-.26-.35-.6-.42-1.04s-.08-.89-.03-1.35.15-.9.32-1.31.37-.72.63-.93L30.12.38l3.66,4.53-19.2,15.5c-.3.33-.33.69-.12,1.08l9.85,12.11c.21.26.43.37.67.34.24-.03.44-.11.61-.25l11.22-9.27c.14-.11.87-.49,1.13-1.4s.01-1.56-.61-2.33-1.45-1.09-2.15-1.09Z"/>
  <path class="cls-1" d="m30.92,19.23c-.7,0-1.33.51-1.47.62l-8.51,6.87-3.38-4.19,13.78-11.13,2.61-2.11,8.22,10.18c.58.71.8,1.54.67,2.5-.13.95-.52,1.69-1.17,2.22l-22.28,17.99c-.26.21-.6.35-1.04.42s-.89.08-1.35.03-.9-.15-1.31-.32-.72-.37-.93-.63L.48,24.73c-.21-.26-.35-.6-.42-1.04s-.08-.89-.03-1.35.15-.9.32-1.31.37-.72.63-.93L25.86,0l3.66,4.53-19.2,15.5c-.3.33-.33.69-.12,1.08l9.85,12.11c.21.26.43.37.67.34.24-.03.44-.11.61-.25l11.22-9.27c.14-.11.87-.49,1.13-1.4s.01-1.56-.61-2.33-1.45-1.09-2.15-1.09Z"/>
</svg>