<svg width="63" height="163" viewBox="0 0 63 163" fill="none" xmlns="http://www.w3.org/2000/svg">
<path fill-rule="evenodd" clip-rule="evenodd" d="M0.0017688 133.329C0.178333 149.746 13.5414 163 30 163L33 163C49.5685 163 63 149.569 63 133L63 -2.75382e-06L-7.12496e-06 0L-6.32131e-06 18.3853C-5.91117e-06 27.7681 8.90478 31.4571 19.3442 35.7819C34.131 41.9077 51.9966 49.309 51.9966 75.9729C51.9966 102.564 34.2288 109.894 19.4659 115.985C9.05927 120.278 0.145796 123.956 0.0017688 133.329ZM-1.31134e-06 133C-1.30654e-06 133.11 0.000589732 133.22 0.0017688 133.329C0.000590068 133.406 -1.29022e-06 133.483 -1.28684e-06 133.561L-1.31134e-06 133Z" fill="black"/>
</svg>
